#!OML:ASF F:\VICON\USERDATA\INSTALL\rory3\rory3.ASF
:FULLY-SPECIFIED
:DEGREES
1678
root 5.50993 17.4925 0.935078 18.7884 0.861235 0.55016
lowerback -8.51911 -1.52508 8.08296
upperback -13.7655 -2.17236 1.00229
thorax -10.3803 -1.85603 -3.38313
lowerneck -4.95503 19.409 11.1058
upperneck 10.687 25.1152 0.662694
head 5.26874 12.7832 0.389785
rclavicle -1.45113e-014 -3.02153e-014
rhumerus -9.27848 -28.3852 28.4832
rradius 113.572
rwrist -61.7713
rhand -4.61262 -41.7377
rfingers 7.12502
rthumb 21.1656 -70.6023
lclavicle -1.45113e-014 -3.02153e-014
lhumerus 24.2404 27.7835 -13.8262
lradius 32.596
lwrist 56.2877
lhand -20.4427 -12.669
lfingers 7.12502
lthumb 5.91241 17.2285
rfemur -14.5472 10.599 -8.99333
rtibia 12.7092
rfoot -11.3618 -23.3028
rtoes 36.4862
lfemur -19.4517 3.25802 -30.4863
ltibia 16.1676
lfoot -14.8205 2.91148
ltoes 9.96806
1679
root 5.51153 17.4926 0.935609 18.7887 0.879031 0.601973
lowerback -8.54456 -1.53489 8.05912
upperback -13.7741 -2.18891 0.975809
thorax -10.3774 -1.86388 -3.39905
lowerneck -4.84462 19.4046 11.1707
upperneck 10.5825 25.1264 0.574669
head 5.23803 12.7858 0.344167
rclavicle 9.14409e-015 -2.3059e-014
rhumerus -9.20613 -28.4407 28.3761
rradius 113.494
rwrist -61.7906
rhand -3.78325 -41.5851
rfingers 7.12502
rthumb 21.9621 -70.3583
lclavicle 9.14409e-015 -2.3059e-014
lhumerus 24.2202 27.6073 -13.927
lradius 32.6252
lwrist 56.4534
lhand -20.912 -12.8488
lfingers 7.12502
lthumb 5.45927 17.0609
rfemur -14.4407 10.5643 -9.04512
rtibia 12.5661
rfoot -11.1718 -23.3685
rtoes 36.0806
lfemur -19.4161 3.29937 -30.557
ltibia 16.1278
lfoot -14.8439 2.83464
ltoes 9.869
1680
root 5.51748 17.4909 0.943881 18.6364 0.817626 0.694363
lowerback -8.52665 -1.51183 8.06781
upperback -13.7279 -2.16387 0.898988
thorax -10.3345 -1.85479 -3.48867
lowerneck -4.77967 19.4284 11.1445
upperneck 10.5646 25.1569 0.67103
head 5.2078 12.806 0.366408
rclavicle 2.8625e-014 7.95139e-015
rhumerus -9.1839 -28.4775 28.3237
rradius 113.412
rwrist -61.7398
rhand -3.11646 -41.4109
rfingers 7.12502
rthumb 22.6022 -70.1076
lclavicle 2.8625e-014 7.95139e-015
lhumerus 24.3621 27.7249 -13.765
lradius 32.5797
lwrist 56.1469
lhand -20.9996 -12.8797
lfingers 7.12502
lthumb 5.37475 17.0322
rfemur -14.2467 10.52 -9.13351
rtibia 12.5515
rfoot -10.8607 -23.307
rtoes 35.6244
lfemur -19.1846 3.37225 -30.6817
ltibia 16.0958
lfoot -14.8924 2.81312
ltoes 9.91281
1681
root 5.52536 17.4878 0.96614 18.121 0.433237 0.602372
lowerback -8.29084 -1.38395 8.23554
upperback -13.5294 -1.98625 0.848464
thorax -10.228 -1.777 -3.63791
lowerneck -4.65814 19.4071 11.1393
upperneck 10.4525 25.1457 0.641929
head 5.15589 12.799 0.337992
rclavicle -1.82882e-014 2.46493e-014
rhumerus -9.16233 -28.4951 28.3248
rradius 113.362
rwrist -61.7566
rhand -3.14976 -41.4638
rfingers 7.12502
rthumb 22.5702 -70.1644
lclavicle -1.82882e-014 2.46493e-014
lhumerus 24.7143 28.2923 -13.2265
lradius 32.3866
lwrist 55.4421
lhand -20.3411 -12.6327
lfingers 7.12502
lthumb 6.01053 17.2621
rfemur -13.902 10.809 -9.06689
rtibia 12.5785
rfoot -10.3787 -23.2969
rtoes 35.3548
lfemur -18.5206 3.63799 -30.6508
ltibia 16.0856
lfoot -15.0694 3.08164
ltoes 9.69763
1682
root 5.5214 17.4891 0.942991 18.5857 0.781121 0.723472
lowerback -8.43326 -1.51041 8.07104
upperback -13.7355 -2.15343 0.892186
thorax -10.3971 -1.85254 -3.49425
lowerneck -4.54236 19.3782 11.1613
upperneck 10.3742 25.1312 0.537544
head 5.12871 12.7875 0.290464
rclavicle 2.20651e-014 -1.11319e-014
rhumerus -9.12338 -28.4662 28.3411
rradius 113.388
rwrist -61.8921
rhand -3.53336 -41.5809
rfingers 7.12502
rthumb 22.202 -70.3258
lclavicle 2.20651e-014 -1.11319e-014
lhumerus 24.992 28.707 -12.7794
lradius 32.2003
lwrist 54.8742
lhand -20.0862 -12.5445
lfingers 7.12502
lthumb 6.25663 17.3431
rfemur -14.2874 10.4817 -9.18863
rtibia 12.6543
rfoot -10.4239 -23.5597
rtoes 35.0825
lfemur -19.0791 3.32838 -30.7277
ltibia 16.0802
lfoot -14.9402 2.91624
ltoes 9.5828
1683
root 5.52557 17.4883 0.928107 18.7635 1.05886 0.750088
lowerback -8.37888 -1.58994 8.16142
upperback -13.8494 -2.24975 0.905265
thorax -10.585 -1.91793 -3.52138
lowerneck -4.51987 19.3832 11.1135
upperneck 10.372 25.1366 0.605443
head 5.11013 12.7928 0.310065
rclavicle 5.24792e-014 -8.74653e-015
rhumerus -9.1101 -28.3997 28.3716
rradius 113.448
rwrist -61.9459
rhand -3.73752 -41.5544
rfingers 7.12502
rthumb 22.006 -70.3225
lclavicle 5.24792e-014 -8.74653e-015
lhumerus 25.067 28.7472 -12.6575
lradius 32.1308
lwrist 54.6993
lhand -20.0049 -12.5392
lfingers 7.12502
lthumb 6.33507 17.3461
rfemur -14.3456 10.1149 -9.14839
rtibia 12.6871
rfoot -10.5034 -23.4831
rtoes 35.2992
lfemur -19.324 3.17349 -30.7254
ltibia 16.1137
lfoot -14.9045 2.73642
ltoes 9.66547
1684
root 5.51793 17.4888 0.928796 18.8186 0.911488 0.706793
lowerback -8.41448 -1.56322 8.06361
upperback -13.8431 -2.21416 0.939914
thorax -10.5413 -1.88658 -3.43228
lowerneck -4.24336 19.3749 11.172
upperneck 9.91311 25.1748 0.36738
head 4.96087 12.7971 0.188188
rclavicle 5.22804e-014 -7.95139e-016
rhumerus -9.16039 -28.4559 28.4186
rradius 113.482
rwrist -61.982
rhand -3.42266 -41.4991
rfingers 7.12502
rthumb 22.3083 -70.2313
lclavicle 5.22804e-014 -7.95139e-016
lhumerus 25.1295 28.918 -12.5535
lradius 32.0553
lwrist 54.4452
lhand -20.0217 -12.6571
lfingers 7.12502
lthumb 6.3189 17.2287
rfemur -14.6023 10.3571 -9.16864
rtibia 12.8402
rfoot -10.6767 -23.46
rtoes 35.3269
lfemur -19.4785 3.21326 -30.6803
ltibia 16.1681
lfoot -14.8683 2.85575
ltoes 9.70131
